<svg width="18" height="31" viewBox="0 0 18 31" fill="none" xmlns="http://www.w3.org/2000/svg">
<path fill-rule="evenodd" clip-rule="evenodd" d="M8.97202 1.0006C7.04413 2.02371 7.11606 4.93768 9.09296 5.90748C10.9846 6.83532 13.1126 5.54332 13.1126 3.46648C13.1126 1.31061 10.8861 -0.0153971 8.97202 1.0006ZM6.84721 6.75731C6.25697 6.99557 1.79276 11.154 1.59989 11.6454C1.50572 11.8852 1.35581 13.2237 1.26653 14.6198C1.11846 16.9381 1.13042 17.1948 1.40398 17.5812C1.7557 18.0781 2.53107 18.2139 3.00946 17.8622C3.36505 17.6008 3.57663 16.203 3.59684 13.9815C3.60695 12.8768 3.63289 12.8076 4.31274 12.0666C4.70068 11.6437 5.21899 11.1542 5.46425 10.9787L5.91047 10.6595L5.59581 12.2165C5.42282 13.0729 5.23601 14.3203 5.18092 14.9882C5.06369 16.4068 5.00288 16.278 7.40596 19.6991C9.55249 22.7552 9.87827 23.4695 10.5344 26.5581C11.002 28.7598 11.1618 29.2462 11.5467 29.6381C12.1707 30.2735 12.9078 30.2627 13.5587 29.6088C13.8306 29.3357 14.0511 28.9314 14.0511 28.7062C14.0511 27.964 12.6937 22.1174 12.3764 21.4923C12.205 21.1551 11.5643 20.1966 10.9523 19.3627C10.3405 18.5286 9.83986 17.759 9.83986 17.6526C9.83986 17.4175 10.5009 14.0389 10.612 13.7055C10.6624 13.5546 10.8628 13.74 11.1625 14.2145C11.6059 14.9169 11.7647 15.0131 13.86 15.848C15.0845 16.3359 16.3052 16.735 16.5727 16.735C17.2189 16.735 17.5885 16.332 17.5885 15.627C17.5885 14.9117 17.4045 14.7843 14.9903 13.8297L13.1504 13.1019L12.6071 11.9148C12.3085 11.262 11.8983 10.1069 11.6958 9.3479C11.2117 7.53318 10.9792 7.32927 8.92098 6.91333C8.01877 6.73108 7.26901 6.58673 7.25469 6.59249C7.24054 6.59841 7.0571 6.67253 6.84721 6.75731ZM4.30095 19.1835C3.98124 21.4803 3.61352 22.3936 1.95329 25.0162C0.699195 26.9974 0.406769 27.5812 0.406769 28.1045C0.406769 29.1905 1.41106 29.8498 2.42393 29.4283C2.79401 29.2743 3.33861 28.5568 4.58917 26.5747C6.62132 23.3541 6.57315 23.4472 6.76872 22.3662L6.92723 21.49L5.71592 19.6052L4.50477 17.7206L4.30095 19.1835Z" fill="white"/>
</svg>
