<svg width="18" height="31" viewBox="0 0 18 31" fill="none" xmlns="http://www.w3.org/2000/svg">
<path fill-rule="evenodd" clip-rule="evenodd" d="M8.96955 1.3247C7.04166 2.3478 7.11358 5.26178 9.09049 6.23158C10.9822 7.15942 13.1102 5.86742 13.1102 3.79058C13.1102 1.63471 10.8836 0.3087 8.96955 1.3247ZM6.84474 7.08141C6.2545 7.31967 1.79029 11.4781 1.59741 11.9695C1.50325 12.2093 1.35333 13.5478 1.26406 14.9439C1.11599 17.2622 1.12795 17.5189 1.40151 17.9052C1.75323 18.4022 2.5286 18.538 3.00699 18.1863C3.36258 17.9249 3.57415 16.5271 3.59437 14.3056C3.60447 13.2009 3.63042 13.1317 4.31027 12.3907C4.69821 11.9678 5.21652 11.4783 5.46178 11.3028L5.908 10.9836L5.59334 12.5406C5.42034 13.397 5.23354 14.6444 5.17845 15.3123C5.06121 16.7309 5.0004 16.6021 7.40348 20.0232C9.55002 23.0793 9.8758 23.7936 10.5319 26.8822C10.9995 29.0839 11.1594 29.5703 11.5443 29.9622C12.1682 30.5976 12.9053 30.5868 13.5562 29.9329C13.8281 29.6598 14.0486 29.2555 14.0486 29.0303C14.0486 28.2881 12.6912 22.4415 12.3739 21.8164C12.2026 21.4792 11.5618 20.5207 10.9498 19.6868C10.338 18.8527 9.83739 18.0831 9.83739 17.9767C9.83739 17.7416 10.4984 14.363 10.6096 14.0296C10.6599 13.8786 10.8604 14.0641 11.16 14.5386C11.6034 15.241 11.7622 15.3372 13.8576 16.1721C15.082 16.66 16.3028 17.0591 16.5703 17.0591C17.2164 17.0591 17.586 16.6561 17.586 15.9511C17.586 15.2358 17.4021 15.1084 14.9879 14.1538L13.1479 13.426L12.6047 12.2389C12.306 11.5861 11.8958 10.431 11.6934 9.672C11.2092 7.85728 10.9768 7.65337 8.91851 7.23743C8.0163 7.05518 7.26654 6.91083 7.25222 6.91658C7.23807 6.92251 7.05463 6.99663 6.84474 7.08141ZM4.29848 19.5076C3.97876 21.8044 3.61104 22.7177 1.95082 25.3403C0.696723 27.3215 0.404297 27.9053 0.404297 28.4286C0.404297 29.5146 1.40858 30.1739 2.42146 29.7524C2.79154 29.5984 3.33614 28.8809 4.58669 26.8988C6.61885 23.6782 6.57068 23.7713 6.76624 22.6903L6.92475 21.8141L5.71344 19.9293L4.5023 18.0447L4.29848 19.5076Z" fill="#FFAF52"/>
</svg>
